<svg width="20" height="20" fill="none" xmlns="http://www.w3.org/2000/svg"><path fill-rule="evenodd" clip-rule="evenodd" d="M16.154 1.538H3.846a2.308 2.308 0 00-2.308 2.308v12.308a2.308 2.308 0 002.308 2.308h12.308a2.308 2.308 0 002.308-2.308V3.846a2.308 2.308 0 00-2.308-2.308zM3.846 0A3.846 3.846 0 000 3.846v12.308A3.846 3.846 0 003.846 20h12.308A3.846 3.846 0 0020 16.154V3.846A3.846 3.846 0 0016.154 0H3.846z" fill="#1B1F2B"/><path fill-rule="evenodd" clip-rule="evenodd" d="M5.61 9.643c.3-.3.788-.3 1.088 0l2.242 2.242 5.027-5.028a.77.77 0 011.088 1.088l-5.571 5.572c-.3.3-.788.3-1.088 0L5.61 10.73a.77.77 0 010-1.088z" fill="#1B1F2B"/></svg>